<svg width="3000" height="3000" viewBox="0 0 3000 3000" fill="none" xmlns="http://www.w3.org/2000/svg" aria-labelledby="title desc" data-visual-system="research-ledger-b" data-media-category="publication-artwork" data-palette="neutral-structure-semantic-exceptions">
  <desc id="desc">Spotify Gaic White Paper 2026 Cover visual asset from the Jearon Wong Research Ledger.</desc>
  <title id="title">Spotify Gaic White Paper 2026 Cover</title>
  <defs>
    <linearGradient id="bgBase" x1="0" y1="0" x2="3000" y2="3000" gradientUnits="userSpaceOnUse">
      <stop offset="0" stop-color="#090D13"/>
      <stop offset="0.55" stop-color="#0D1320"/>
      <stop offset="1" stop-color="#121924"/>
    </linearGradient>
    <linearGradient id="leftWedge" x1="0" y1="0" x2="1900" y2="3000" gradientUnits="userSpaceOnUse">
      <stop offset="0" stop-color="#0A1018"/>
      <stop offset="1" stop-color="#0E1621"/>
    </linearGradient>
    <linearGradient id="rightField" x1="1500" y1="0" x2="3000" y2="3000" gradientUnits="userSpaceOnUse">
      <stop offset="0" stop-color="#111A27"/>
      <stop offset="1" stop-color="#0D1118"/>
    </linearGradient>
    <linearGradient id="edgeAccent" x1="1490" y1="0" x2="1490" y2="3000" gradientUnits="userSpaceOnUse">
      <stop offset="0" stop-color="#b8c2ce" stop-opacity="0"/>
      <stop offset="0.5" stop-color="#b8c2ce" stop-opacity="0.85"/>
      <stop offset="1" stop-color="#FF7B5C" stop-opacity="0"/>
    </linearGradient>
    <pattern id="grid" width="180" height="180" patternUnits="userSpaceOnUse">
      <path d="M180 0H0V180" fill="none" stroke="#263547" stroke-width="1.4" opacity="0.38"/>
      <path d="M0 90H180M90 0V180" fill="none" stroke="#1B2634" stroke-width="1.1" opacity="0.28"/>
    </pattern>
    <filter id="softGlow" x="-40%" y="-40%" width="180%" height="180%">
      <feGaussianBlur stdDeviation="9" result="blur"/>
      <feMerge>
        <feMergeNode in="blur"/>
        <feMergeNode in="SourceGraphic"/>
      </feMerge>
    </filter>
  </defs>

  <rect width="3000" height="3000" fill="url(#bgBase)"/>
  <rect width="3000" height="3000" fill="url(#grid)" opacity="0.28"/>

  <path d="M0 0H1860L1400 3000H0Z" fill="url(#leftWedge)"/>
  <path d="M1500 0H3000V3000H2140L1180 980Z" fill="url(#rightField)"/>

  <path d="M0 1080L3000 300" stroke="#1E2A3B" stroke-width="14" opacity="0.5"/>
  <path d="M0 1940L3000 1120" stroke="#FF7B5C" stroke-width="10" opacity="0.14"/>
  <path d="M0 2380L3000 1500" stroke="#b8c2ce" stroke-width="7" opacity="0.12"/>

  <path d="M1480 0L1160 3000" stroke="url(#edgeAccent)" stroke-width="16" opacity="0.9"/>
  <path d="M0 0H3000" stroke="#1D2835" stroke-width="4" opacity="0.55"/>
  <path d="M0 3000H3000" stroke="#1D2835" stroke-width="4" opacity="0.55"/>

  <g transform="translate(180 320)">
    <text x="0" y="0" fill="#b8c2ce" font-family="Inter, Helvetica, sans-serif" font-size="40" font-weight="700">GLOBAL AI COMPLIANCE WHITE PAPER 2026</text>
    <path d="M0 48H640" stroke="#b8c2ce" stroke-width="6" opacity="0.72"/>
  </g>

  <g font-family="Inter, Helvetica, sans-serif" font-weight="900">
    <text x="180" y="820" fill="#b8c2ce" font-size="168">AGENTIC</text>
    <text x="180" y="1010" fill="#F5FAFF" font-size="168">LIFECYCLE</text>
    <text x="180" y="1200" fill="#FF7B5C" font-size="168">CONFORMANCE</text>
  </g>

  <text x="180" y="1310" fill="#B8C7D8" font-family="Inter, Helvetica, sans-serif" font-size="48" font-weight="700">AUTHORITY / EVIDENCE / CLOSURE</text>
  <path d="M180 1355H870" stroke="#F8BE57" stroke-width="8" opacity="0.8"/>

  <text x="180" y="2815" fill="#F5FAFF" font-family="Inter, Helvetica, sans-serif" font-size="44" font-weight="800">JEARON WONG</text>
  <text x="180" y="2872" fill="#93A8BC" font-family="Inter, Helvetica, sans-serif" font-size="28" font-weight="700">PROTOCOL DESIGN FOR THE AGENT ERA</text>

  <g transform="translate(2210 1510)" filter="url(#softGlow)">
    <circle cx="0" cy="0" r="510" fill="none" stroke="#253244" stroke-width="30" opacity="0.9"/>
    <circle cx="0" cy="0" r="510" fill="none" stroke="#b8c2ce" stroke-width="34" stroke-linecap="round" stroke-dasharray="600 2400" stroke-dashoffset="0"/>
    <circle cx="0" cy="0" r="510" fill="none" stroke="#8CF26A" stroke-width="34" stroke-linecap="round" stroke-dasharray="600 2400" stroke-dashoffset="-760"/>
    <circle cx="0" cy="0" r="510" fill="none" stroke="#F8BE57" stroke-width="34" stroke-linecap="round" stroke-dasharray="600 2400" stroke-dashoffset="-1520"/>
    <circle cx="0" cy="0" r="510" fill="none" stroke="#FF7B5C" stroke-width="34" stroke-linecap="round" stroke-dasharray="600 2400" stroke-dashoffset="-2280"/>

    <circle cx="0" cy="0" r="332" fill="none" stroke="#314153" stroke-width="18" stroke-dasharray="78 42" opacity="0.85"/>
    <circle cx="0" cy="0" r="206" fill="none" stroke="#E8F1FA" stroke-width="12" opacity="0.55"/>

    <path d="M0 -510V-292" stroke="#b8c2ce" stroke-width="14" stroke-linecap="round" opacity="0.9"/>
    <path d="M510 0H292" stroke="#8CF26A" stroke-width="14" stroke-linecap="round" opacity="0.9"/>
    <path d="M0 510V292" stroke="#FF7B5C" stroke-width="14" stroke-linecap="round" opacity="0.9"/>
    <path d="M-510 0H-292" stroke="#F8BE57" stroke-width="14" stroke-linecap="round" opacity="0.9"/>

    <circle cx="0" cy="-510" r="28" fill="#b8c2ce"/>
    <circle cx="510" cy="0" r="28" fill="#8CF26A"/>
    <circle cx="0" cy="510" r="28" fill="#FF7B5C"/>
    <circle cx="-510" cy="0" r="28" fill="#F8BE57"/>

    <rect x="-142" y="-142" width="284" height="284" rx="30" fill="#0B111A" stroke="#F5FAFF" stroke-width="10"/>
    <path d="M-92 -58H92" stroke="#b8c2ce" stroke-width="14" stroke-linecap="round"/>
    <path d="M-92 0H92" stroke="#E8F1FA" stroke-width="14" stroke-linecap="round"/>
    <path d="M-92 58H92" stroke="#FF7B5C" stroke-width="14" stroke-linecap="round"/>
    <circle cx="-108" cy="-58" r="12" fill="#b8c2ce"/>
    <circle cx="-108" cy="0" r="12" fill="#E8F1FA"/>
    <circle cx="-108" cy="58" r="12" fill="#FF7B5C"/>
    <circle cx="108" cy="-58" r="12" fill="#b8c2ce"/>
    <circle cx="108" cy="0" r="12" fill="#E8F1FA"/>
    <circle cx="108" cy="58" r="12" fill="#FF7B5C"/>
  </g>

  <path d="M1750 1040L2065 1360" stroke="#1F2B3B" stroke-width="8" opacity="0.65"/>
  <path d="M1750 1980L2065 1660" stroke="#1F2B3B" stroke-width="8" opacity="0.65"/>
  <path d="M1300 2480L1770 1510" stroke="#15202B" stroke-width="10" opacity="0.6"/>
</svg>
