<svg width="1200" height="630" viewBox="0 0 1200 630" fill="none" xmlns="http://www.w3.org/2000/svg">
  <rect width="1200" height="630" fill="#111111"/>
  <g opacity="0.12">
    <path d="M0 72H1200" stroke="#F1F5F9"/>
    <path d="M0 144H1200" stroke="#F1F5F9"/>
    <path d="M0 216H1200" stroke="#F1F5F9"/>
    <path d="M0 288H1200" stroke="#F1F5F9"/>
    <path d="M0 360H1200" stroke="#F1F5F9"/>
    <path d="M0 432H1200" stroke="#F1F5F9"/>
    <path d="M0 504H1200" stroke="#F1F5F9"/>
    <path d="M0 576H1200" stroke="#F1F5F9"/>
    <path d="M96 0V630" stroke="#F1F5F9"/>
    <path d="M192 0V630" stroke="#F1F5F9"/>
    <path d="M288 0V630" stroke="#F1F5F9"/>
    <path d="M384 0V630" stroke="#F1F5F9"/>
    <path d="M480 0V630" stroke="#F1F5F9"/>
    <path d="M576 0V630" stroke="#F1F5F9"/>
    <path d="M672 0V630" stroke="#F1F5F9"/>
    <path d="M768 0V630" stroke="#F1F5F9"/>
    <path d="M864 0V630" stroke="#F1F5F9"/>
    <path d="M960 0V630" stroke="#F1F5F9"/>
    <path d="M1056 0V630" stroke="#F1F5F9"/>
    <path d="M1152 0V630" stroke="#F1F5F9"/>
  </g>
  <rect x="72" y="72" width="1056" height="486" stroke="#334155" stroke-width="2"/>
  <text x="120" y="156" fill="#F1F5F9" font-family="Outfit, Inter, sans-serif" font-size="28" font-weight="700">Jearon Wong</text>
  <text x="120" y="196" fill="#3B82F6" font-family="JetBrains Mono, monospace" font-size="18" font-weight="700" letter-spacing="3">PROTOCOL ARCHITECT FOR THE AGENT ERA</text>
  <text x="120" y="310" fill="#F1F5F9" font-family="Outfit, Inter, sans-serif" font-size="74" font-weight="800">Defining how AI agents</text>
  <text x="120" y="390" fill="#F1F5F9" font-family="Outfit, Inter, sans-serif" font-size="74" font-weight="800">reliably deliver real work.</text>
  <text x="120" y="468" fill="#94A3B8" font-family="Inter, sans-serif" font-size="28" font-weight="500">Ideas, essays, and proof surfaces for Protocol Engineering, agent governance,</text>
  <text x="120" y="504" fill="#94A3B8" font-family="Inter, sans-serif" font-size="28" font-weight="500">and reliable AI agent work delivery.</text>
  <rect x="846" y="166" width="192" height="192" fill="#1A1A1A" stroke="#334155" stroke-width="2"/>
  <text x="882" y="290" fill="#F1F5F9" font-family="Outfit, Inter, sans-serif" font-size="112" font-weight="800">JW</text>
  <text x="846" y="430" fill="#22D3EE" font-family="JetBrains Mono, monospace" font-size="18" font-weight="700" letter-spacing="2">MPLP · COGNITIVE OS</text>
  <text x="846" y="462" fill="#22D3EE" font-family="JetBrains Mono, monospace" font-size="18" font-weight="700" letter-spacing="2">SOLOCREW · VALIDATION LAB</text>
</svg>
